HIERARCHY
ROOT Hips
{
	OFFSET 0.000000 0.000000 0.000000
	CHANNELS 6 Xposition Yposition Zposition Zrotation Yrotation Xrotation 
	JOINT LHipJoint
	{
		OFFSET 0.000000 0.000000 0.000000
		CHANNELS 3 Zrotation Yrotation Xrotation
		JOINT LeftUpLeg
		{
			OFFSET 8.178360 -10.767780 5.035740
			CHANNELS 3 Zrotation Yrotation Xrotation
			JOINT LeftLeg
			{
				OFFSET 14.688660 -40.356780 0.000000
				CHANNELS 3 Zrotation Yrotation Xrotation
				JOINT LeftFoot
				{
					OFFSET 15.373200 -42.237540 0.000000
					CHANNELS 3 Zrotation Yrotation Xrotation
					JOINT LeftToeBase
					{
						OFFSET 0.945840 -2.598660 13.935300
						CHANNELS 3 Zrotation Yrotation Xrotation
						End Site
						{
							OFFSET 0.000000 0.000000 0.000000
						}
					}
				}
			}
		}
	}
	JOINT RHipJoint
	{
		OFFSET 0.000000 0.000000 0.000000
		CHANNELS 3 Zrotation Yrotation Xrotation
		JOINT RightUpLeg
		{
			OFFSET -7.833120 -10.767780 5.035740
			CHANNELS 3 Zrotation Yrotation Xrotation
			JOINT RightLeg
			{
				OFFSET -15.255180 -41.913300 0.000000
				CHANNELS 3 Zrotation Yrotation Xrotation
				JOINT RightFoot
				{
					OFFSET -15.409560 -42.337380 0.000000
					CHANNELS 3 Zrotation Yrotation Xrotation
					JOINT RightToeBase
					{
						OFFSET -0.988380 -2.715540 14.178900
						CHANNELS 3 Zrotation Yrotation Xrotation
						End Site
						{
							OFFSET 0.000000 0.000000 0.000000
						}
					}
				}
			}
		}
	}
	JOINT LowerBack
	{
		OFFSET 0.000000 0.000000 0.000000
		CHANNELS 3 Zrotation Yrotation Xrotation
		JOINT Spine
		{
			OFFSET 0.169620 12.213540 -1.160280
			CHANNELS 3 Zrotation Yrotation Xrotation
			JOINT Spine1
			{
				OFFSET 0.340320 12.293100 -0.256500
				CHANNELS 3 Zrotation Yrotation Xrotation
				JOINT Neck
				{
					OFFSET 0.000000 0.000000 0.000000
					CHANNELS 3 Zrotation Yrotation Xrotation
					JOINT Neck1
					{
						OFFSET -0.325020 10.477440 1.032120
						CHANNELS 3 Zrotation Yrotation Xrotation
						JOINT Head
						{
							OFFSET 0.624420 10.568160 -0.743820
							CHANNELS 3 Zrotation Yrotation Xrotation
							End Site
							{
								OFFSET 0.000000 0.000000 0.000000
							}
						}
					}
				}
				JOINT LeftShoulder
				{
					OFFSET 0.000000 0.000000 0.000000
					CHANNELS 3 Zrotation Yrotation Xrotation
					JOINT LeftArm
					{
						OFFSET 20.174460 7.205340 -1.867260
						CHANNELS 3 Zrotation Yrotation Xrotation
						JOINT LeftForeArm
						{
							OFFSET 29.898000 -0.000000 -0.000000
							CHANNELS 3 Zrotation Yrotation Xrotation
							JOINT LeftHand
							{
								OFFSET 20.901360 -0.000000 -0.000000
								CHANNELS 3 Zrotation Yrotation Xrotation
								JOINT LeftFingerBase
								{
									OFFSET 0.000000 0.000000 0.000000
									CHANNELS 3 Zrotation Yrotation Xrotation
									JOINT LeftHandIndex1
									{
										OFFSET 4.291560 -0.000000 -0.000000
										CHANNELS 3 Zrotation Yrotation Xrotation
										End Site
										{
											OFFSET 0.000000 0.000000 0.000000
										}
									}
								}
								JOINT LThumb
								{
									OFFSET 0.000000 0.000000 0.000000
									CHANNELS 3 Zrotation Yrotation Xrotation
									End Site
									{
										OFFSET 0.000000 0.000000 0.000000
									}
								}
							}
						}
					}
				}
				JOINT RightShoulder
				{
					OFFSET 0.000000 0.000000 0.000000
					CHANNELS 3 Zrotation Yrotation Xrotation
					JOINT RightArm
					{
						OFFSET -18.819600 8.244300 -2.427900
						CHANNELS 3 Zrotation Yrotation Xrotation
						JOINT RightForeArm
						{
							OFFSET -31.451400 -0.000000 -0.000000
							CHANNELS 3 Zrotation Yrotation Xrotation
							JOINT RightHand
							{
								OFFSET -20.665020 -0.000000 -0.000000
								CHANNELS 3 Zrotation Yrotation Xrotation
								JOINT RightFingerBase
								{
									OFFSET 0.000000 0.000000 0.000000
									CHANNELS 3 Zrotation Yrotation Xrotation
									JOINT RightHandIndex1
									{
										OFFSET -3.735180 -0.000000 -0.000000
										CHANNELS 3 Zrotation Yrotation Xrotation
										End Site
										{
											OFFSET 0.000000 0.000000 0.000000
										}
									}
								}
								JOINT RThumb
								{
									OFFSET 0.000000 0.000000 0.000000
									CHANNELS 3 Zrotation Yrotation Xrotation
									End Site
									{
										OFFSET 0.000000 0.000000 0.000000
									}
								}
							}
						}
					}
				}
			}
		}
	}
}
MOTION
Frames:	10
Frame Time:	0.0333333
-35.810274 109.876452 64.066020 174.692592 -57.335300 -177.284456 -1.658735 2.256135 3.045229 -13.245147 -0.172073 -1.583094 3.437914 11.595165 37.039407 1.002315 -2.931896 22.693761 0.052700 -1.482100 -4.076300 0.358678 -1.498178 0.671623 27.425612 -1.493039 -17.596849 -2.187867 -9.519219 27.932291 2.561026 -15.808606 6.256287 -0.465100 -4.374500 12.132700 -5.640390 -5.168354 7.571389 2.981541 -7.311017 1.441185 6.553382 -3.917236 -3.150750 -15.308506 -16.392516 9.315035 11.519116 -35.822247 25.681817 2.535300 -18.100100 15.911200 -6.165375 -0.965873 -1.021545 -83.976805 -5.504754 21.759125 16.916152 -23.504512 -4.178825 -1.229958 -2.447856 2.826171 19.832797 24.911498 9.987200 -7.125000 0.000000 0.000000 -10.594100 58.671100 -3.566500 5.518124 1.908651 -0.725959 84.689249 -11.527224 9.676980 -14.981519 21.950564 -3.027932 0.300341 -0.030529 11.872292 -13.267529 3.624934 -0.865200 7.125000 0.000000 0.000000 9.882900 -26.264900 4.552900 
-33.819114 109.427376 66.487662 174.091272 -60.011260 -176.339486 -1.872085 2.421089 3.339350 -14.417288 -0.581111 1.951069 1.764133 9.321519 29.302479 0.379155 -0.996974 15.926576 0.695700 -5.332000 -14.858000 0.350777 -1.482980 0.548039 26.278233 -0.932091 -20.214290 -2.306320 -9.862538 28.720855 2.808917 -16.923660 5.711509 -0.705100 -5.367000 14.958400 -5.380771 -5.530129 7.468643 3.056936 -7.747006 1.310168 6.589131 -4.149868 -3.285714 -15.400326 -16.356586 9.390974 11.546954 -35.611985 25.733526 2.617600 -17.999500 15.898900 -6.130530 -1.048559 -1.009216 -84.456424 -6.670005 23.806765 17.418862 -24.080938 -4.443497 -1.164313 -2.318607 3.470260 19.153690 23.333532 9.058500 -7.125000 0.000000 0.000000 -10.554100 56.806100 -3.077400 5.513787 1.928697 -0.721390 84.266481 -11.806662 9.583004 -14.370495 21.056657 -2.769447 0.332098 -0.051236 11.101885 -14.071690 3.924726 -1.002300 7.125000 0.000000 0.000000 9.228800 -25.931900 4.316700 
-31.610916 108.794838 69.029226 172.431161 -63.179667 -174.033692 -2.058316 2.513331 3.532347 -15.712835 -3.152250 5.110418 0.601210 7.442469 23.345242 -0.045451 0.247972 9.286227 1.155100 -6.823700 -19.194100 0.316387 -1.457176 0.474907 24.342507 -0.162840 -22.979109 -2.427344 -10.211553 29.601255 2.714003 -16.374703 5.261847 -0.629800 -5.077800 14.130500 -5.839873 -5.951264 7.308193 3.381927 -8.356458 1.058197 7.438968 -4.457079 -3.396806 -15.357745 -16.515698 8.997555 10.620877 -35.183465 26.050826 2.339800 -17.757500 15.735300 -6.087712 -1.157031 -1.003381 -85.747556 -7.834015 25.946305 18.023457 -24.764917 -4.766811 -1.120460 -2.307998 3.871124 18.777605 23.120477 8.783200 -7.125000 0.000000 0.000000 -10.910300 56.501200 -3.102200 5.507355 1.915978 -0.732551 83.531152 -12.089537 8.366063 -14.620090 21.423649 -2.864135 0.319840 -0.049333 11.038683 -13.775469 4.090739 -1.021800 7.125000 0.000000 0.000000 9.449000 -25.766400 4.459400 
-29.221644 108.144906 71.292588 168.391341 -65.921890 -169.380718 -2.258838 2.449587 3.595101 -16.560160 -2.937604 4.977033 -0.122518 5.878699 18.809439 0.139174 -2.459292 5.117010 2.078000 -9.026700 -25.878800 0.309362 -1.382699 0.430640 20.780167 1.916119 -25.084403 -2.489874 -10.478598 30.261798 2.610584 -15.407043 3.664271 -0.658700 -5.190800 14.453600 -6.906513 -6.320729 7.183926 3.065260 -8.954020 0.737458 7.568840 -4.707234 -3.641032 -14.849761 -16.519730 8.941360 10.861468 -35.131828 26.078006 2.385800 -17.653400 15.706500 -6.024435 -1.204501 -1.010578 -85.518968 -8.587896 28.333695 18.563197 -25.449585 -5.092766 -1.007135 -2.220459 4.074379 17.741372 21.932943 7.860600 -7.125000 0.000000 0.000000 -11.511000 54.993800 -2.853100 5.455156 1.944690 -0.764259 84.242676 -12.320483 6.280782 -15.159447 22.208796 -3.082768 0.319395 -0.046467 11.230854 -13.935408 4.151502 -1.048100 7.125000 0.000000 0.000000 9.326000 -25.706300 4.413100 
-26.644710 107.514162 73.212996 162.140369 -68.649161 -162.696654 -2.441344 2.229300 3.515060 -17.281442 -1.105022 2.411476 -0.303895 5.230164 17.103571 0.594713 -8.068513 4.239919 1.609100 -7.999400 -22.712400 0.290738 -1.278997 0.436865 16.562958 3.829084 -26.816360 -2.723673 -10.979531 31.846911 2.070720 -12.286568 1.250896 -0.812700 -5.752900 16.069200 -8.145558 -6.479709 7.437621 2.374717 -9.345097 0.251811 7.211528 -4.774349 -4.482273 -14.050929 -16.358755 9.206523 11.367454 -35.281825 26.410200 2.486600 -17.649800 15.871500 -5.968568 -1.190148 -1.053964 -84.617595 -8.429886 31.561503 19.060959 -26.136905 -5.431236 -0.775599 -2.252557 3.061948 15.481940 21.869814 6.761600 -7.125000 0.000000 0.000000 -13.980800 54.472200 -3.302500 5.402970 1.986100 -0.809584 85.782138 -12.472535 3.228390 -15.020014 22.001624 -3.012307 0.349362 -0.081928 10.736124 -14.996451 4.920386 -1.351400 7.125000 0.000000 0.000000 8.458300 -24.868100 4.160300 
-24.110946 107.036910 75.097434 157.654969 -71.576205 -158.494429 -2.588963 2.011764 3.350370 -17.709016 -1.183493 0.045075 -0.162643 5.661038 18.280660 0.803695 -10.708372 2.776454 1.293400 -7.205900 -20.326700 0.227353 -1.211583 0.477048 13.862491 4.901254 -26.835789 -3.230264 -11.736067 34.560854 1.235964 -7.954749 -1.447443 -0.550700 -4.754100 13.208500 -8.765354 -6.945257 8.028149 2.394338 -10.050331 0.529721 7.714927 -5.180486 -3.948980 -13.711151 -16.109255 7.507337 11.222552 -34.578402 27.169595 2.318700 -17.103200 16.392800 -5.985743 -1.252671 -1.028898 -84.441960 -9.984945 32.183860 19.000002 -26.025329 -5.384431 -0.951337 -2.158576 3.708299 17.519178 21.191127 7.503400 -7.125000 0.000000 0.000000 -11.416400 54.131500 -2.588000 5.429300 2.032228 -0.772351 85.928898 -10.574737 0.497231 -14.766579 21.655963 -2.895108 0.372343 -0.083059 10.335027 -15.545158 4.880444 -1.392500 7.125000 0.000000 0.000000 8.034400 -24.896900 3.942300 
-21.720474 106.939776 76.957284 153.071519 -73.417304 -154.177653 -2.730155 1.807022 3.142843 -19.116939 -2.769601 -1.344963 -0.094923 6.049645 19.287808 0.764218 -9.602721 1.901732 1.024700 -6.439500 -18.065100 0.104241 -1.201376 0.539888 11.738486 6.092040 -26.960171 -4.536801 -13.305296 40.344792 0.612626 -4.861967 -2.241868 -0.530700 -4.668200 12.964500 -9.243097 -6.751413 8.525652 2.713157 -9.883185 0.628666 8.557660 -5.108750 -3.895436 -14.221673 -16.089707 6.919456 11.201279 -33.811751 27.019210 2.467200 -16.706800 16.363600 -6.039168 -1.307354 -1.004060 -85.707310 -11.065640 32.620594 18.491292 -25.268074 -5.066060 -1.210292 -2.190780 2.691531 20.734245 21.558821 9.187000 -7.125000 0.000000 0.000000 -7.961400 55.198500 -2.002900 5.490700 2.083667 -0.727038 85.454226 -9.393835 -3.162789 -14.803906 21.732207 -2.897569 0.353309 -0.065146 11.244345 -14.983815 4.319297 -1.180500 7.125000 0.000000 0.000000 8.501500 -25.505200 4.054600 
-19.470906 107.110656 78.293718 152.209883 -74.880624 -154.118835 -2.784197 1.724873 3.015373 -19.220469 -3.669833 -2.126883 -0.003260 6.386002 20.188607 0.715088 -8.902885 2.197987 0.776900 -5.627700 -15.707900 -0.048575 -1.247154 0.571054 11.976108 6.733244 -26.084744 -6.486289 -15.123496 47.963074 0.361612 -3.545197 -1.986246 -0.063200 -1.621700 4.461300 -8.622360 -6.179389 8.971260 2.825131 -9.059958 0.927631 8.348692 -4.725314 -3.907928 -14.149227 -15.814133 6.526449 10.696820 -33.027912 27.657394 2.401300 -16.323900 16.493300 -6.125619 -1.333162 -0.985599 -86.187392 -11.170702 31.163024 17.748152 -24.242621 -4.630506 -1.330690 -2.195533 4.227463 21.070907 22.227209 9.622200 -7.125000 0.000000 0.000000 -7.831100 56.001900 -2.122800 5.559277 2.087015 -0.690320 84.842213 -8.381511 -3.470490 -13.869075 20.358836 -2.519310 0.365408 -0.070951 10.439092 -14.987230 4.217229 -1.156300 7.125000 0.000000 0.000000 8.494600 -25.600500 4.032200 
-17.204544 107.502174 79.256022 149.593900 -76.733375 -152.636586 -2.802711 1.686457 2.922414 -19.031541 -4.574118 -2.466392 0.022246 6.503336 20.496713 0.688580 -9.046498 3.570128 0.884400 -5.995000 -16.769800 -0.175198 -1.320030 0.611926 12.602678 6.237497 -24.185353 -8.661144 -16.661202 55.659645 0.169027 -2.437616 -1.053806 -0.251600 -3.227600 8.913000 -8.602794 -5.569974 9.675931 2.972278 -8.285042 1.270609 8.580074 -4.364137 -3.913730 -14.266201 -15.601827 6.563994 10.642302 -32.507174 28.044810 2.510600 -16.084400 16.600700 -6.174221 -1.313951 -0.978830 -86.409734 -10.569916 30.525577 17.263669 -23.599320 -4.368090 -1.368523 -2.203670 4.257888 21.172978 22.270634 9.705100 -7.125000 0.000000 0.000000 -7.706300 56.082200 -2.103700 5.609663 2.067049 -0.670289 84.495449 -7.948293 -3.488416 -13.848704 20.325813 -2.508572 0.367127 -0.097859 11.279818 -15.281981 4.708186 -1.322900 7.125000 0.000000 0.000000 8.240600 -25.069800 4.012100 
-14.874630 108.270216 79.975500 146.289030 -79.044832 -149.415745 -2.850688 1.596133 2.814953 -18.212327 -5.328268 -3.722866 -0.098694 6.265880 19.794129 0.723470 -10.499878 7.060113 0.915800 -6.097600 -17.068000 -0.267480 -1.398251 0.667774 13.795389 4.985906 -22.714715 -10.625051 -17.702283 62.123120 0.128946 -2.272273 2.177901 -0.222500 -3.036500 8.380200 -7.852716 -5.265684 9.520307 2.992980 -7.780207 1.231903 8.156645 -4.086312 -4.098037 -13.669331 -15.357094 6.627647 10.213640 -32.090994 28.781049 2.387200 -15.858900 16.702900 -6.179431 -1.262738 -1.000059 -85.526428 -9.241746 30.461367 16.860229 -23.154009 -4.180090 -1.335804 -2.173257 3.810567 20.812669 21.701333 9.310900 -7.125000 0.000000 0.000000 -7.851500 55.377100 -2.009100 5.601105 2.016711 -0.696232 84.519222 -8.178084 -1.911670 -14.340960 21.034254 -2.703809 0.380857 -0.086104 10.851401 -15.738099 4.556072 -1.317200 7.125000 0.000000 0.000000 7.899800 -25.227900 3.813700 
